{
  "accessors": [
    {
      "bufferView": 2,
      "componentType": 5126,
      "count": 19709,
      "max": [
        0.04119378700852394,
        1.2672125345857422e-14,
        0.03258641064167023
      ],
      "min": [
        -0.04119379073381424,
        -0.08336519449949265,
        -0.03258641064167023
      ],
      "type": "VEC3"
    },
    {
      "bufferView": 2,
      "byteOffset": 236508,
      "componentType": 5126,
      "count": 19709,
      "max": [
        0.9999443888664246,
        0.999971866607666,
        0.9999280571937561
      ],
      "min": [
        -0.9998800158500671,
        -0.999907910823822,
        -0.9999843239784241
      ],
      "type": "VEC3"
    },
    {
      "bufferView": 1,
      "componentType": 5126,
      "count": 19709,
      "max": [
        0.9999799728393555,
        0.9984920024871826
      ],
      "min": [
        1.2501899618655443e-05,
        6.377280078595504e-05
      ],
      "type": "VEC2"
    },
    {
      "bufferView": 0,
      "componentType": 5125,
      "count": 100596,
      "type": "SCALAR"
    },
    {
      "bufferView": 2,
      "byteOffset": 473016,
      "componentType": 5126,
      "count": 2802,
      "max": [
        0.04119378700852394,
        -0.00018955710402224213,
        -0.03109120763838291
      ],
      "min": [
        -0.04119379073381424,
        -0.08336519449949265,
        -0.03258641064167023
      ],
      "type": "VEC3"
    },
    {
      "bufferView": 2,
      "byteOffset": 506640,
      "componentType": 5126,
      "count": 2802,
      "max": [
        0.9968459606170654,
        0.9982245564460754,
        0.908268392086029
      ],
      "min": [
        -0.9929025769233704,
        -0.998814582824707,
        -0.9999843239784241
      ],
      "type": "VEC3"
    },
    {
      "bufferView": 1,
      "byteOffset": 157672,
      "componentType": 5126,
      "count": 2802,
      "max": [
        0.0,
        0.0
      ],
      "min": [
        0.0,
        0.0
      ],
      "type": "VEC2"
    },
    {
      "bufferView": 0,
      "byteOffset": 402384,
      "componentType": 5125,
      "count": 15612,
      "type": "SCALAR"
    }
  ],
  "asset": {
    "extras": {
      "author": "emm (https://sketchfab.com/edemaistre)",
      "license": "CC-BY-4.0 (http://creativecommons.org/licenses/by/4.0/)",
      "source": "https://sketchfab.com/3d-models/cake-1-maison-alyzee-c01b7abbedfa4e49bd25f14c4b2a756a",
      "title": "Cake #1 - Maison Alyzée"
    },
    "generator": "Sketchfab-11.71.0",
    "version": "2.0"
  },
  "bufferViews": [
    {
      "buffer": 0,
      "byteLength": 464832,
      "name": "floatBufferViews",
      "target": 34963
    },
    {
      "buffer": 0,
      "byteLength": 180088,
      "byteOffset": 464832,
      "byteStride": 8,
      "name": "floatBufferViews",
      "target": 34962
    },
    {
      "buffer": 0,
      "byteLength": 540264,
      "byteOffset": 644920,
      "byteStride": 12,
      "name": "floatBufferViews",
      "target": 34962
    }
  ],
  "buffers": [
    {
      "byteLength": 1185184,
      "uri": "scene.bin"
    }
  ],
  "extensionsUsed": [
    "KHR_materials_unlit"
  ],
  "images": [
    {
      "uri": "textures/material_1_baseColor.png"
    }
  ],
  "materials": [
    {
      "doubleSided": true,
      "extensions": {
        "KHR_materials_unlit": {}
      },
      "name": "material_1",
      "pbrMetallicRoughness": {
        "baseColorTexture": {
          "index": 0
        },
        "metallicFactor": 0.0
      }
    }
  ],
  "meshes": [
    {
      "name": "Object_0",
      "primitives": [
        {
          "attributes": {
            "NORMAL": 1,
            "POSITION": 0,
            "TEXCOORD_0": 2
          },
          "indices": 3,
          "material": 0,
          "mode": 4
        }
      ]
    },
    {
      "name": "Object_1",
      "primitives": [
        {
          "attributes": {
            "NORMAL": 5,
            "POSITION": 4,
            "TEXCOORD_0": 6
          },
          "indices": 7,
          "material": 0,
          "mode": 4
        }
      ]
    }
  ],
  "nodes": [
    {
      "children": [
        1
      ],
      "matrix": [
        1.0,
        0.0,
        0.0,
        0.0,
        0.0,
        2.220446049250313e-16,
        -1.0,
        0.0,
        0.0,
        1.0,
        2.220446049250313e-16,
        0.0,
        0.0,
        0.0,
        0.0,
        1.0
      ],
      "name": "Sketchfab_model"
    },
    {
      "children": [
        2,
        3
      ],
      "name": "1-13x1.obj.cleaner.materialmerger.gles"
    },
    {
      "mesh": 0,
      "name": "Object_2"
    },
    {
      "mesh": 1,
      "name": "Object_3"
    }
  ],
  "samplers": [
    {
      "magFilter": 9729,
      "minFilter": 9987,
      "wrapS": 10497,
      "wrapT": 10497
    }
  ],
  "scene": 0,
  "scenes": [
    {
      "name": "Sketchfab_Scene",
      "nodes": [
        0
      ]
    }
  ],
  "textures": [
    {
      "sampler": 0,
      "source": 0
    }
  ]
}
